<svg class="animated" id="freepik_stories-profile-pic" xmlns="http://www.w3.org/2000/svg" xmlns:xlink="http://www.w3.org/1999/xlink" viewBox="0 0 500 500" version="1.1" xmlns:svgjs="http://svgjs.com/svgjs"><style>svg#freepik_stories-profile-pic:not(.animated) .animable {opacity: 0;}svg#freepik_stories-profile-pic.animated #freepik--Shadow--inject-6 {animation: 1s 1 forwards cubic-bezier(.36,-0.01,.5,1.38) zoomOut;animation-delay: 0s;}svg#freepik_stories-profile-pic.animated #freepik--Character--inject-6 {animation: 1s 1 forwards cubic-bezier(.36,-0.01,.5,1.38) slideDown;animation-delay: 0s;}            @keyframes zoomOut {                0% {                    opacity: 0;                    transform: scale(1.5);                }                100% {                    opacity: 1;                    transform: scale(1);                }            }                    @keyframes slideDown {                0% {                    opacity: 0;                    transform: translateY(-30px);                }                100% {                    opacity: 1;                    transform: translateY(0);                }            }        </style><g id="freepik--Shadow--inject-6" class="animable" style="transform-origin: 250px 416.24px;"><ellipse id="freepik--path--inject-6" cx="250" cy="416.24" rx="193.89" ry="11.32" style="fill: rgb(245, 245, 245); transform-origin: 250px 416.24px;" class="animable"></ellipse></g><g id="freepik--Character--inject-6" class="animable" style="transform-origin: 287.581px 253.435px;"><path d="M208.41,140.39c1.05-3.26,10.49-11.46,22.15-7.32s9,20.45,7.74,24.59-8.73,16.62-17.41,14S194.5,150.1,208.41,140.39Z" style="fill: rgb(38, 50, 56); transform-origin: 221.369px 151.973px;" id="elhkgpabq4wbk" class="animable"></path><path d="M233.92,153.11c.77-2.41,7.73-8.45,16.32-5.4s6.63,15.07,5.7,18.12-6.43,12.24-12.83,10.32S223.67,160.26,233.92,153.11Z" style="fill: rgb(38, 50, 56); transform-origin: 243.466px 161.64px;" id="elwzbiik1w68r" class="animable"></path><path d="M244.3,143.51l-5.93,8.05S235.44,144.93,244.3,143.51Z" style="fill: rgb(38, 50, 56); transform-origin: 241.103px 147.535px;" id="eljuymwgqgg4o" class="animable"></path><path d="M228.19,166.68c-1.62-1.56-9.64-3.38-15.11,2.64S214.21,184,216.23,186s10.21,6.92,14.44,2.72S239.26,168,228.19,166.68Z" style="fill: rgb(38, 50, 56); transform-origin: 223.074px 177.758px;" id="elw5bhzlxve0f" class="animable"></path><path d="M225.73,196l-.22.57-.2.49c-.14.32-.27.64-.41.94-.28.62-.58,1.2-.88,1.79-.61,1.17-1.24,2.31-1.91,3.43a59.11,59.11,0,0,1-4.48,6.36c-.79,1-1.66,2-2.5,3s-1.76,1.89-2.71,2.77a58.7,58.7,0,0,1-5.9,5c-.29.21-.39.33-1.09.79a6.62,6.62,0,0,1-2.28.9,6.2,6.2,0,0,1-2.75-.11,6.63,6.63,0,0,1-2.05-1,9.17,9.17,0,0,1-2.18-2.21,15.06,15.06,0,0,1-1.23-2,37.82,37.82,0,0,1-2.71-7.52,88.71,88.71,0,0,1-2.39-14.72l4.55-.81c1.38,4.51,2.86,9.08,4.55,13.35a36.4,36.4,0,0,0,2.82,5.83,8.64,8.64,0,0,0,.75,1c.22.24.44.39.39.31a.93.93,0,0,0-.42-.21,2,2,0,0,0-1-.06,2.3,2.3,0,0,0-.62.2c-.2.13.16-.16.34-.33a64.72,64.72,0,0,0,9.12-9.82,61.06,61.06,0,0,0,3.71-5.56q.85-1.42,1.62-2.88l.72-1.45.34-.71.27-.61Z" style="fill: rgb(255, 181, 115); transform-origin: 207.785px 207.437px;" id="elvf5ks86yp8i" class="animable"></path><path d="M225.23,182.15c-7.83,3.57-10.86,13.51-11.13,14.06l9.71,17.65S233.26,207.17,234,201C234.7,195.79,230.38,179.8,225.23,182.15Z" style="fill: rgb(22, 23, 24); transform-origin: 224.087px 197.888px;" id="el2kij2av41o" class="animable"></path><path d="M194.68,194.71l2.46-7.42-9.32,2s-.21,6.44,2.78,8.77l1.59-.66A4.36,4.36,0,0,0,194.68,194.71Z" style="fill: rgb(255, 181, 115); transform-origin: 192.478px 192.675px;" id="ely3vegrd9db" class="animable"></path><polygon points="194.84 179.35 188.19 182.12 187.82 189.27 197.14 187.28 194.84 179.35" style="fill: rgb(255, 181, 115); transform-origin: 192.48px 184.31px;" id="eltrg77ixxkfj" class="animable"></polygon><path d="M265.78,120.25l-6.47-7.41-3,9s5.06,4.36,9.18.56Z" style="fill: rgb(255, 181, 115); transform-origin: 261.045px 118.397px;" id="elggjllrsv4hh" class="animable"></path><polygon points="255.62 109.35 251.04 115.55 256.28 121.88 259.31 112.84 255.62 109.35" style="fill: rgb(255, 181, 115); transform-origin: 255.175px 115.615px;" id="el9pujk7eqpye" class="animable"></polygon><polygon points="345.72 387.72 339.14 393.74 320.62 381.44 327.2 375.42 345.72 387.72" style="fill: rgb(255, 181, 115); transform-origin: 333.17px 384.58px;" id="elyzxsg0rivsc" class="animable"></polygon><polygon points="411.55 307.02 411.15 316.13 389.93 318.13 390.33 309.02 411.55 307.02" style="fill: rgb(255, 181, 115); transform-origin: 400.74px 312.575px;" id="el82zd1glnfg3" class="animable"></polygon><path d="M408.93,316.53l-2.47-9.94a.71.71,0,0,1,.43-.85l7.59-3.09a1.46,1.46,0,0,1,1.92,1c.8,3.48,1,5.2,2.1,9.57.67,2.69,2.54,8.54,3.47,12.25s-2.7,4.83-3.42,3.36c-3.21-6.56-6.16-9.14-8.7-11A2.46,2.46,0,0,1,408.93,316.53Z" style="fill: rgb(38, 50, 56); transform-origin: 414.278px 316.007px;" id="ely315ttrot5q" class="animable"></path><path d="M336.12,393l4.45-9.86a.9.9,0,0,1,.95-.51l8.77,1.37a1.35,1.35,0,0,1,1,1.91c-1.62,3.42-2.58,5-4.53,9.35-1.21,2.66-4.85,11.48-6.51,15.16s-5.6,2.71-5.26,1.08c1.53-7.36,2-13.92,1-16.86A2.27,2.27,0,0,1,336.12,393Z" style="fill: rgb(38, 50, 56); transform-origin: 343.195px 397.786px;" id="elqdp2hhwl9oi" class="animable"></path><g id="eljatrsrgulp"><polygon points="320.63 381.44 330.43 387.96 336.79 381.79 327.21 375.42 320.63 381.44" style="opacity: 0.2; transform-origin: 328.71px 381.69px;" class="animable"></polygon></g><g id="ely9wnsdelj28"><polygon points="390.33 309.01 389.93 318.13 400.87 317.1 401.27 307.98 390.33 309.01" style="opacity: 0.2; transform-origin: 395.6px 313.055px;" class="animable"></polygon></g><path d="M219.75,187s4.09,20.2,24.53,38c2.58,2.24,2.07,8,5.62,7.52,12.43-7.84,25.16-15.56,31.2-19.38.15-6.88-4.56-5.77-5.67-9.47-2.66-8.81-9.95-18.74-17.49-40.43a108.11,108.11,0,0,0-14.4,6.64,129.18,129.18,0,0,0-14.22,9A119.38,119.38,0,0,0,219.75,187Z" style="fill: rgb(22, 23, 24); transform-origin: 250.427px 197.894px;" id="elnrolxx690j" class="animable"></path><path d="M232,154.75c2,5.14,6.39,14.08,11.52,15.11,0,0,3.1,14.82-3,23-9.59-1.59-11.21-14.07-11.21-14.07,4.33-4.44,1.81-8.14-1.32-11.13Z" style="fill: rgb(255, 181, 115); transform-origin: 236.149px 173.805px;" id="elvqhi5fc5tr7" class="animable"></path><path d="M234.62,193.67a4,4,0,0,1-2.84-1.34c-1.86-1.91-1.22-4.82-.54-7.91s1.36-6.19,0-8.95a.28.28,0,1,1,.51-.25c1.47,2.93.73,6.33.07,9.32s-1.25,5.71.4,7.39a3.21,3.21,0,0,0,4.63.34c3.28-2.43,5.37-9.28,3-13.5-2.17-4,0-7.46,1-9.14a5.35,5.35,0,0,0,.48-.85.27.27,0,0,1,.21-.33.29.29,0,0,1,.34.23c.06.27-.14.6-.54,1.25-1.07,1.71-3.06,4.91-1,8.57,2.45,4.45.25,11.66-3.2,14.23A4.28,4.28,0,0,1,234.62,193.67Z" style="fill: rgb(38, 50, 56); transform-origin: 236.224px 181.057px;" id="elwi4cxpj2omh" class="animable"></path><g id="elqt35n1e3rte"><path d="M230.38,160,228,167.7a17.79,17.79,0,0,1,2,2.25c1.77-1.51,3.6-5.11,2.52-7.29A9.84,9.84,0,0,0,230.38,160Z" style="opacity: 0.2; transform-origin: 230.421px 164.975px;" class="animable"></path></g><path d="M231.57,144.4c2.77,8.62,4.13,12.2,1.57,18.18-3.85,9-15,10.51-20.33,2.9-4.76-6.85-8.49-19.79-1.56-26.35A12.34,12.34,0,0,1,231.57,144.4Z" style="fill: rgb(255, 181, 115); transform-origin: 220.966px 153.037px;" id="elly891z2ww2i" class="animable"></path><path d="M213.71,142.29c.59,4.71,10.72,10.12,20.11,7.91,6.56-1.55,1.46-13.07-6.34-15.09S212.74,134.58,213.71,142.29Z" style="fill: rgb(38, 50, 56); transform-origin: 225.224px 142.502px;" id="elrnzl8sxoegc" class="animable"></path><path d="M218.05,142.26l-19.82,2.47S203.82,131.36,218.05,142.26Z" style="fill: rgb(38, 50, 56); transform-origin: 208.14px 141.356px;" id="eliz85gqux5h" class="animable"></path><path d="M216.79,142,200.66,149S202.12,136.3,216.79,142Z" style="fill: rgb(38, 50, 56); transform-origin: 208.725px 144.764px;" id="eljpudyky8uqo" class="animable"></path><path d="M215.13,142l-4.5,6.38S208.23,143.26,215.13,142Z" style="fill: rgb(38, 50, 56); transform-origin: 212.678px 145.19px;" id="elfvkokyg6lv9" class="animable"></path><path d="M217.59,142,201,138.14S209.45,129.11,217.59,142Z" style="fill: rgb(38, 50, 56); transform-origin: 209.295px 138.533px;" id="elgdpxbfft91" class="animable"></path><path d="M215.89,142.38l-7.77-9.64S217,131.32,215.89,142.38Z" style="fill: rgb(38, 50, 56); transform-origin: 212.053px 137.53px;" id="el7ydyo1yaogd" class="animable"></path><path d="M235.85,151.48a6.63,6.63,0,0,1-.65,5c-1.16,2-3.36,1.35-4.38-.59-.92-1.75-1.42-4.91.4-6.25A3,3,0,0,1,235.85,151.48Z" style="fill: rgb(255, 181, 115); transform-origin: 233.033px 153.406px;" id="elmwclk86zmcr" class="animable"></path><path d="M250.61,233.24s4,81.24,19.32,104.42c16,24.12,55.3,49.91,55.3,49.91l11-9.32s-37-35-45.18-55.35c-11.32-28.08-13.43-106.73-13.43-106.73Z" style="fill: rgb(38, 50, 56); transform-origin: 293.42px 301.87px;" id="elyfo8jvet6pr" class="animable"></path><polygon points="337.24 377.47 324.94 388.77 318.72 385.39 331.74 372.26 337.24 377.47" style="fill: rgb(22, 23, 24); transform-origin: 327.98px 380.515px;" id="elycpnnxn1zhp" class="animable"></polygon><g id="elyl6xq3vi1gk"><path d="M268.87,234.89c-.13,9.59,5.35,22.51,12.34,30.77-.76-7.62-1.38-15-1.88-21.63C275.82,240.13,272.19,236.72,268.87,234.89Z" style="opacity: 0.2; transform-origin: 275.039px 250.275px;" class="animable"></path></g><path d="M258.87,228s37.89,50.08,61.37,77c19,21.71,77.7,14.42,77.7,14.42l0-12.56s-42.14,1-55.16-13.64c-41.64-47-42-72.1-60.85-79.74Z" style="fill: rgb(38, 50, 56); transform-origin: 328.405px 267.038px;" id="elfydv2zq27eb" class="animable"></path><polygon points="398.21 304.78 398.24 322.1 390.06 324.38 390.44 304.86 398.21 304.78" style="fill: rgb(22, 23, 24); transform-origin: 394.15px 314.58px;" id="eljn9u1wxlgo8" class="animable"></polygon><path d="M281.22,211.34l3.18,1.91c.25.14.13.53-.23.76l-32.83,20.73c-.28.18-.61.19-.74,0l-2-2.63c-.14-.18,0-.5.31-.69l31.7-20A.68.68,0,0,1,281.22,211.34Z" style="fill: rgb(22, 23, 24); transform-origin: 266.539px 223.09px;" id="elb9sh388s189" class="animable"></path><g id="elfbcyhcg3hk"><path d="M281.22,211.34l3.18,1.91c.25.14.13.53-.23.76l-32.83,20.73c-.28.18-.61.19-.74,0l-2-2.63c-.14-.18,0-.5.31-.69l31.7-20A.68.68,0,0,1,281.22,211.34Z" style="opacity: 0.4; transform-origin: 266.539px 223.09px;" class="animable"></path></g><path d="M279.2,217.57l.85-.54c.17-.1.24-.27.16-.37l-2.69-3.39c-.08-.1-.29-.09-.45,0l-.85.54c-.17.11-.25.28-.17.37l2.7,3.39A.36.36,0,0,0,279.2,217.57Z" style="fill: rgb(38, 50, 56); transform-origin: 278.131px 215.424px;" id="eloixobqz5o2o" class="animable"></path><path d="M253.92,233.54l.84-.54c.17-.1.25-.27.17-.37l-2.7-3.39c-.08-.1-.28-.09-.45,0l-.85.54c-.17.11-.24.28-.16.38l2.69,3.38A.37.37,0,0,0,253.92,233.54Z" style="fill: rgb(38, 50, 56); transform-origin: 252.849px 231.394px;" id="el448dumzwk99" class="animable"></path><path d="M266.56,225.56l.85-.54c.17-.11.24-.28.16-.38l-2.7-3.38c-.07-.1-.28-.1-.45,0l-.85.54c-.17.1-.24.27-.16.37l2.7,3.39C266.19,225.67,266.39,225.66,266.56,225.56Z" style="fill: rgb(38, 50, 56); transform-origin: 265.49px 223.412px;" id="elqai14utw41" class="animable"></path><path d="M219.73,151.74c.27.68.12,1.38-.32,1.56s-1-.24-1.3-.93-.12-1.38.33-1.55S219.46,151.06,219.73,151.74Z" style="fill: rgb(38, 50, 56); transform-origin: 218.914px 152.062px;" id="el1cx0ftg4xw4" class="animable"></path><path d="M212,154.77c.27.68.12,1.38-.33,1.55s-1-.24-1.29-.92-.12-1.38.33-1.56S211.72,154.08,212,154.77Z" style="fill: rgb(38, 50, 56); transform-origin: 211.186px 155.078px;" id="elmf5suzfmyp" class="animable"></path><path d="M210.91,153.8l-1.83.17S210.42,154.93,210.91,153.8Z" style="fill: rgb(38, 50, 56); transform-origin: 209.995px 154.075px;" id="el68sq7ufsaz" class="animable"></path><path d="M214.5,155.14a19.49,19.49,0,0,1-.74,5.33,3.15,3.15,0,0,0,2.62-.5Z" style="fill: rgb(237, 137, 62); transform-origin: 215.07px 157.853px;" id="elaolfkgo5on" class="animable"></path><path d="M219.82,161.74a.22.22,0,0,1-.25-.13.21.21,0,0,1,.12-.28,5.88,5.88,0,0,0,3.6-3.86.21.21,0,0,1,.25-.16.21.21,0,0,1,.17.25,6.16,6.16,0,0,1-3.86,4.17Z" style="fill: rgb(38, 50, 56); transform-origin: 221.634px 159.525px;" id="elbjp5vpj3hp4" class="animable"></path><path d="M220.08,149a.45.45,0,0,1-.3,0,3.45,3.45,0,0,0-3.12-.05.43.43,0,0,1-.59-.16.44.44,0,0,1,.15-.59,4.3,4.3,0,0,1,3.94,0,.44.44,0,0,1,.2.58A.43.43,0,0,1,220.08,149Z" style="fill: rgb(38, 50, 56); transform-origin: 218.207px 148.374px;" id="elb2k41wflje" class="animable"></path><path d="M207,152.59a.45.45,0,0,1-.2,0,.43.43,0,0,1-.33-.51A4.26,4.26,0,0,1,209,149a.42.42,0,0,1,.55.25.41.41,0,0,1-.25.55,3.43,3.43,0,0,0-1.9,2.47A.45.45,0,0,1,207,152.59Z" style="fill: rgb(38, 50, 56); transform-origin: 208.022px 150.786px;" id="elc8kf1r0o7nh" class="animable"></path><path d="M261.93,162l.54-.26.72-.36c.49-.25,1-.52,1.48-.81,1-.59,2-1.23,2.92-1.92A45.83,45.83,0,0,0,273.1,154a66.51,66.51,0,0,0,4.92-5.39l1.13-1.46.56-.73.07-.09,0,0,0,0s0-.06.06-.09a1.82,1.82,0,0,0,.15-1.3,9.23,9.23,0,0,0-.91-2.6,26.22,26.22,0,0,0-1.76-2.91,54.53,54.53,0,0,0-4.68-5.72,137.05,137.05,0,0,0-11.17-10.62l2.64-3.79a92.51,92.51,0,0,1,13.23,9.55,53.68,53.68,0,0,1,5.95,6A28.39,28.39,0,0,1,286,138.5a16.77,16.77,0,0,1,2,4.73,11.14,11.14,0,0,1,.31,3.08,9.62,9.62,0,0,1-.79,3.38,7.4,7.4,0,0,1-.39.8l-.22.38-.19.29-.57.89L285,153.82a61.72,61.72,0,0,1-5.38,6.64,54.86,54.86,0,0,1-6.49,5.75,40.52,40.52,0,0,1-3.69,2.43c-.65.38-1.31.74-2,1.09l-1.07.5c-.4.17-.69.3-1.28.51Z" style="fill: rgb(255, 181, 115); transform-origin: 274.894px 145.02px;" id="el4ufa7hl2moh" class="animable"></path><path d="M248.36,167.34c4.4-4.83,18.57-9.37,18.57-9.37l4.55,23.16s-4.91,4.89-10.86,3.21C255.56,182.91,242.09,174.22,248.36,167.34Z" style="fill: rgb(22, 23, 24); transform-origin: 259.104px 171.331px;" id="elprjx6l1obp" class="animable"></path><path d="M411,321.27a1.36,1.36,0,0,1-.81.33.74.74,0,0,1-.69-.27c-.72-.91.35-4,.47-4.38a.21.21,0,0,1,.19-.15.24.24,0,0,1,.21.12c.55,1.08,1.4,3,.85,4.06A1.23,1.23,0,0,1,411,321.27Zm-.79-3.68c-.39,1.26-.75,3-.37,3.47a.31.31,0,0,0,.31.11.78.78,0,0,0,.69-.4C411.11,320.22,410.87,319.05,410.18,317.59Z" style="fill: rgb(22, 23, 24); transform-origin: 410.325px 319.204px;" id="el9ze8pcknux" class="animable"></path><path d="M408.74,319.49a2.15,2.15,0,0,1-1.21.68.75.75,0,0,1-.76-.56,1.09,1.09,0,0,1,.06-1c.61-1.17,3.15-1.81,3.26-1.84a.21.21,0,0,1,.21.06.22.22,0,0,1,.05.21A6.49,6.49,0,0,1,408.74,319.49Zm-1.24-1a1.31,1.31,0,0,0-.29.36.69.69,0,0,0,0,.61c.1.26.23.28.34.28.63,0,1.82-1.39,2.28-2.4A6.42,6.42,0,0,0,407.5,318.49Z" style="fill: rgb(22, 23, 24); transform-origin: 408.517px 318.467px;" id="el2bwe7qg3p7v" class="animable"></path><path d="M335.78,398.09a3.54,3.54,0,0,1-1.33,1.72,1.34,1.34,0,0,1-1.17.08.65.65,0,0,1-.43-.49c-.2-1.17,2.84-3.84,3.45-4.36a.23.23,0,0,1,.25,0,.21.21,0,0,1,.1.23A14,14,0,0,1,335.78,398.09Zm-2.41.81a.72.72,0,0,0-.09.42c0,.06,0,.12.15.16a.89.89,0,0,0,.81-.05c.7-.38,1.37-1.71,1.84-3.63A13.71,13.71,0,0,0,333.37,398.9Z" style="fill: rgb(22, 23, 24); transform-origin: 334.748px 397.495px;" id="elx7bls5v6wol" class="animable"></path><path d="M336.64,395.29l-.05.07c-1,.9-3.77,2.34-4.64,1.79-.19-.12-.38-.37-.22-.91.65-2.05,4.59-1.29,4.76-1.25a.2.2,0,0,1,.16.15A.26.26,0,0,1,336.64,395.29Zm-4.44.95a.5.5,0,0,0-.05.13q-.11.33,0,.42c.5.31,2.63-.6,3.76-1.45C335,395.21,332.73,395.06,332.2,396.24Z" style="fill: rgb(22, 23, 24); transform-origin: 334.163px 396.046px;" id="eld64cyn0fxya" class="animable"></path><path d="M218.65,150.78l-1.83.17S218.17,151.9,218.65,150.78Z" style="fill: rgb(38, 50, 56); transform-origin: 217.735px 151.053px;" id="elf2u920cau7k" class="animable"></path><rect x="156.36" y="90.63" width="166.39" height="325.61" rx="27.85" style="fill: rgb(22, 23, 24); transform-origin: 239.555px 253.435px;" id="eldbxxmkwmmg" class="animable"></rect><g id="elv55l7f4d3f"><rect x="156.36" y="90.63" width="166.39" height="325.61" rx="27.85" style="opacity: 0.2; transform-origin: 239.555px 253.435px;" class="animable"></rect></g><rect x="289.67" y="143.13" width="35.27" height="43.4" rx="7.7" style="fill: rgb(22, 23, 24); transform-origin: 307.305px 164.83px;" id="elh0uympiygu" class="animable"></rect><g id="elfblu20213b"><rect x="289.67" y="143.13" width="35.27" height="43.4" rx="7.7" style="opacity: 0.2; transform-origin: 307.305px 164.83px;" class="animable"></rect></g><rect x="153.04" y="143.13" width="35.27" height="57.3" rx="7.7" style="fill: rgb(22, 23, 24); transform-origin: 170.675px 171.78px;" id="el1ehalz8uruf" class="animable"></rect><g id="eluwegz8866p"><rect x="153.04" y="143.13" width="35.27" height="57.3" rx="7.7" style="opacity: 0.2; transform-origin: 170.675px 171.78px;" class="animable"></rect></g><rect x="289.67" y="189.66" width="35.27" height="43.4" rx="7.7" style="fill: rgb(22, 23, 24); transform-origin: 307.305px 211.36px;" id="ellne5biqzxcl" class="animable"></rect><g id="el944t8sosw"><rect x="289.67" y="189.66" width="35.27" height="43.4" rx="7.7" style="opacity: 0.2; transform-origin: 307.305px 211.36px;" class="animable"></rect></g><rect x="154.79" y="90.63" width="166.39" height="325.61" rx="27.85" style="fill: rgb(22, 23, 24); transform-origin: 237.985px 253.435px;" id="elcno2kdvk1zv" class="animable"></rect><g id="el0u0vifair4ee"><rect x="78.5" y="173.56" width="318.96" height="159.75" rx="24.53" style="fill: rgb(255, 255, 255); transform-origin: 237.98px 253.435px; transform: rotate(90deg);" class="animable"></rect></g><rect x="290.39" y="102.64" width="14.57" height="8.26" rx="1.69" style="fill: rgb(22, 23, 24); transform-origin: 297.675px 106.77px;" id="el8pf50fwma5b" class="animable"></rect><g id="elzvo1mfqga9"><rect x="170.67" y="102.64" width="18.8" height="8.26" rx="1.91" style="fill: rgb(22, 23, 24); opacity: 0.2; transform-origin: 180.07px 106.77px;" class="animable"></rect></g><rect x="288.6" y="104.05" width="3" height="5.44" rx="0.62" style="fill: rgb(22, 23, 24); transform-origin: 290.1px 106.77px;" id="elvudn4btv9y" class="animable"></rect><rect x="300.56" y="104.05" width="3" height="5.44" rx="0.62" style="fill: rgb(255, 255, 255); transform-origin: 302.06px 106.77px;" id="el5jp7ybnu94n" class="animable"></rect><rect x="296.77" y="104.05" width="3" height="5.44" rx="0.62" style="fill: rgb(255, 255, 255); transform-origin: 298.27px 106.77px;" id="elidsyu1riboh" class="animable"></rect><g id="elxh3gdrblj"><path d="M175.37,119.69H300.6a4.36,4.36,0,0,1,4.36,4.36V276.81a4.36,4.36,0,0,1-4.36,4.36H175.37a4.37,4.37,0,0,1-4.37-4.37V124.06a4.36,4.36,0,0,1,4.36-4.36Z" style="fill: rgb(22, 23, 24); opacity: 0.2; transform-origin: 237.98px 200.43px;" class="animable"></path></g><g style="clip-path: url(&quot;#freepik--clip-path--inject-6&quot;); transform-origin: 290.266px 261.151px;" id="elo3qo5o8632n" class="animable"><g id="elvs9b4jdc2lj"><path d="M271,137.18c3.48-4.46,8-7.64,11.4-7.64a3.53,3.53,0,0,1,3.71,3.29,8,8,0,0,1,4.43-1.86c2.3,0,3.12,2.15,2.31,5.18a10,10,0,0,1,3.85-1.16c2.34-.13,3.66,1.1,3.79,3.11a3.78,3.78,0,0,1,1.65-.58c1.36-.08,1.71,1.17.81,2.78l-.18.3H265.59C266.13,139,269.35,137.25,271,137.18Z" style="fill: rgb(255, 255, 255); opacity: 0.6; transform-origin: 284.519px 135.067px;" class="animable"></path></g><g id="elsfor97qux0h"><path d="M200.21,221.46c8.74-11.19,20.17-19.16,28.63-19.16,5.31,0,8.46,3.14,9.3,8.24,3.9-2.91,7.84-4.65,11.12-4.65,5.77,0,7.85,5.39,5.79,13a25.34,25.34,0,0,1,9.67-2.9c5.9-.34,9.21,2.76,9.53,7.8a9.54,9.54,0,0,1,4.14-1.46c3.4-.19,4.3,2.94,2,7-.14.26-.29.5-.44.75H186.55C187.92,226.08,196,221.66,200.21,221.46Z" style="fill: rgb(255, 255, 255); opacity: 0.6; transform-origin: 234.107px 216.19px;" class="animable"></path></g><g id="ele0raofa8ftt"><path d="M259.73,181.61a7.86,7.86,0,0,1,.93-.07c4.55-4.41,9.15-7.23,12.41-7.23,2.36,0,3.64,1.47,3.88,4,8.5-8.57,17.27-14.14,23.38-14.14,4.93,0,7.23,3.62,6.95,9.53,4.21-3.36,8.22-5.37,11.27-5.37,5.37,0,6.2,6.22,2.73,15h0a23.61,23.61,0,0,1,9.57-3.36c5.54-.4,8,3.18,7.25,9a9.15,9.15,0,0,1,4.14-1.68c3-.21,3.37,3,.92,7.31H241.1C245.82,188.05,254,182.35,259.73,181.61Z" style="fill: rgb(255, 255, 255); opacity: 0.6; transform-origin: 292.936px 179.385px;" class="animable"></path></g><g id="elwi6u5t23jtp"><path d="M168.33,155a3,3,0,0,1,.5,0c2.42-2.35,4.87-3.85,6.61-3.85,1.26,0,1.94.78,2.07,2.11,4.53-4.57,9.2-7.54,12.46-7.54,2.63,0,3.85,1.93,3.7,5.08,2.25-1.79,4.38-2.86,6-2.86,2.86,0,3.3,3.31,1.45,8h0a12.66,12.66,0,0,1,5.1-1.8c2.95-.21,4.25,1.7,3.86,4.81a5,5,0,0,1,2.21-.9c1.62-.11,1.8,1.6.49,3.9H158.41C160.92,158.44,165.25,155.4,168.33,155Z" style="fill: rgb(255, 255, 255); opacity: 0.6; transform-origin: 186.029px 153.835px;" class="animable"></path></g><path d="M208.41,140.39c1.05-3.26,10.49-11.46,22.15-7.32s9,20.45,7.74,24.59-8.73,16.62-17.41,14S194.5,150.1,208.41,140.39Z" style="fill: rgb(38, 50, 56); transform-origin: 221.369px 151.973px;" id="elqje7dd5jx9" class="animable"></path><path d="M233.92,153.11c.77-2.41,7.73-8.45,16.32-5.4s6.63,15.07,5.7,18.12-6.43,12.24-12.83,10.32S223.67,160.26,233.92,153.11Z" style="fill: rgb(38, 50, 56); transform-origin: 243.466px 161.64px;" id="elc0m0de4thf" class="animable"></path><path d="M244.3,143.51l-5.93,8.05S235.44,144.93,244.3,143.51Z" style="fill: rgb(38, 50, 56); transform-origin: 241.103px 147.535px;" id="elyn42yrmkbvp" class="animable"></path><path d="M228.19,166.68c-1.62-1.56-9.64-3.38-15.11,2.64S214.21,184,216.23,186s10.21,6.92,14.44,2.72S239.26,168,228.19,166.68Z" style="fill: rgb(38, 50, 56); transform-origin: 223.074px 177.758px;" id="elxipyk4j96pm" class="animable"></path><path d="M225.73,196l-.22.57-.2.49c-.14.32-.27.64-.41.94-.28.62-.58,1.2-.88,1.79-.61,1.17-1.24,2.31-1.91,3.43a59.11,59.11,0,0,1-4.48,6.36c-.79,1-1.66,2-2.5,3s-1.76,1.89-2.71,2.77a58.7,58.7,0,0,1-5.9,5c-.29.21-.39.33-1.09.79a6.62,6.62,0,0,1-2.28.9,6.2,6.2,0,0,1-2.75-.11,6.63,6.63,0,0,1-2.05-1,9.17,9.17,0,0,1-2.18-2.21,15.06,15.06,0,0,1-1.23-2,37.82,37.82,0,0,1-2.71-7.52,88.71,88.71,0,0,1-2.39-14.72l4.55-.81c1.38,4.51,2.86,9.08,4.55,13.35a36.4,36.4,0,0,0,2.82,5.83,8.64,8.64,0,0,0,.75,1c.22.24.44.39.39.31a.93.93,0,0,0-.42-.21,2,2,0,0,0-1-.06,2.3,2.3,0,0,0-.62.2c-.2.13.16-.16.34-.33a64.72,64.72,0,0,0,9.12-9.82,61.06,61.06,0,0,0,3.71-5.56q.85-1.42,1.62-2.88l.72-1.45.34-.71.27-.61Z" style="fill: rgb(255, 181, 115); transform-origin: 207.785px 207.437px;" id="el9y35wfywn5c" class="animable"></path><path d="M225.23,182.15c-7.83,3.57-10.86,13.51-11.13,14.06l9.71,17.65S233.26,207.17,234,201C234.7,195.79,230.38,179.8,225.23,182.15Z" style="fill: rgb(22, 23, 24); transform-origin: 224.087px 197.888px;" id="elp2yvbd75ybk" class="animable"></path><path d="M194.68,194.71l2.46-7.42-9.32,2s-.21,6.44,2.78,8.77l1.59-.66A4.36,4.36,0,0,0,194.68,194.71Z" style="fill: rgb(255, 181, 115); transform-origin: 192.478px 192.675px;" id="elxn0fsj8xgo" class="animable"></path><polygon points="194.84 179.35 188.19 182.12 187.82 189.27 197.14 187.28 194.84 179.35" style="fill: rgb(255, 181, 115); transform-origin: 192.48px 184.31px;" id="ela3uvvricvp" class="animable"></polygon><path d="M265.78,120.25l-6.47-7.41-3,9s5.06,4.36,9.18.56Z" style="fill: rgb(255, 181, 115); transform-origin: 261.045px 118.397px;" id="elskgnesfieaa" class="animable"></path><polygon points="255.62 109.35 251.04 115.55 256.28 121.88 259.31 112.84 255.62 109.35" style="fill: rgb(255, 181, 115); transform-origin: 255.175px 115.615px;" id="elconjgzgj8et" class="animable"></polygon><polygon points="345.72 387.72 339.14 393.74 320.62 381.44 327.2 375.42 345.72 387.72" style="fill: rgb(255, 181, 115); transform-origin: 333.17px 384.58px;" id="elfn7j9a0btyf" class="animable"></polygon><polygon points="411.55 307.02 411.15 316.13 389.93 318.13 390.33 309.02 411.55 307.02" style="fill: rgb(255, 181, 115); transform-origin: 400.74px 312.575px;" id="el5d5qymw44ao" class="animable"></polygon><path d="M408.93,316.53l-2.47-9.94a.71.71,0,0,1,.43-.85l7.59-3.09a1.46,1.46,0,0,1,1.92,1c.8,3.48,1,5.2,2.1,9.57.67,2.69,2.54,8.54,3.47,12.25s-2.7,4.83-3.42,3.36c-3.21-6.56-6.16-9.14-8.7-11A2.46,2.46,0,0,1,408.93,316.53Z" style="fill: rgb(38, 50, 56); transform-origin: 414.278px 316.007px;" id="elh3kk8i1ax5r" class="animable"></path><path d="M336.12,393l4.45-9.86a.9.9,0,0,1,.95-.51l8.77,1.37a1.35,1.35,0,0,1,1,1.91c-1.62,3.42-2.58,5-4.53,9.35-1.21,2.66-4.85,11.48-6.51,15.16s-5.6,2.71-5.26,1.08c1.53-7.36,2-13.92,1-16.86A2.27,2.27,0,0,1,336.12,393Z" style="fill: rgb(38, 50, 56); transform-origin: 343.195px 397.786px;" id="elxa9svziojmd" class="animable"></path><g id="elcjskrbzvez6"><polygon points="320.63 381.44 330.43 387.96 336.79 381.79 327.21 375.42 320.63 381.44" style="opacity: 0.2; transform-origin: 328.71px 381.69px;" class="animable"></polygon></g><g id="el8i1mgnjsspu"><polygon points="390.33 309.01 389.93 318.13 400.87 317.1 401.27 307.98 390.33 309.01" style="opacity: 0.2; transform-origin: 395.6px 313.055px;" class="animable"></polygon></g><path d="M219.75,187s4.09,20.2,24.53,38c2.58,2.24,2.07,8,5.62,7.52,12.43-7.84,25.16-15.56,31.2-19.38.15-6.88-4.56-5.77-5.67-9.47-2.66-8.81-9.95-18.74-17.49-40.43a108.11,108.11,0,0,0-14.4,6.64,129.18,129.18,0,0,0-14.22,9A119.38,119.38,0,0,0,219.75,187Z" style="fill: rgb(22, 23, 24); transform-origin: 250.427px 197.894px;" id="el8pjlziii089" class="animable"></path><path d="M232,154.75c2,5.14,6.39,14.08,11.52,15.11,0,0,3.1,14.82-3,23-9.59-1.59-11.21-14.07-11.21-14.07,4.33-4.44,1.81-8.14-1.32-11.13Z" style="fill: rgb(255, 181, 115); transform-origin: 236.149px 173.805px;" id="elmiolbp1v51d" class="animable"></path><path d="M234.62,193.67a4,4,0,0,1-2.84-1.34c-1.86-1.91-1.22-4.82-.54-7.91s1.36-6.19,0-8.95a.28.28,0,1,1,.51-.25c1.47,2.93.73,6.33.07,9.32s-1.25,5.71.4,7.39a3.21,3.21,0,0,0,4.63.34c3.28-2.43,5.37-9.28,3-13.5-2.17-4,0-7.46,1-9.14a5.35,5.35,0,0,0,.48-.85.27.27,0,0,1,.21-.33.29.29,0,0,1,.34.23c.06.27-.14.6-.54,1.25-1.07,1.71-3.06,4.91-1,8.57,2.45,4.45.25,11.66-3.2,14.23A4.28,4.28,0,0,1,234.62,193.67Z" style="fill: rgb(38, 50, 56); transform-origin: 236.224px 181.057px;" id="elfvlnb790u2d" class="animable"></path><g id="el3tum9c3bus7"><path d="M230.38,160,228,167.7a17.79,17.79,0,0,1,2,2.25c1.77-1.51,3.6-5.11,2.52-7.29A9.84,9.84,0,0,0,230.38,160Z" style="opacity: 0.2; transform-origin: 230.421px 164.975px;" class="animable"></path></g><path d="M231.57,144.4c2.77,8.62,4.13,12.2,1.57,18.18-3.85,9-15,10.51-20.33,2.9-4.76-6.85-8.49-19.79-1.56-26.35A12.34,12.34,0,0,1,231.57,144.4Z" style="fill: rgb(255, 181, 115); transform-origin: 220.966px 153.037px;" id="elrexokavrpzj" class="animable"></path><path d="M213.71,142.29c.59,4.71,10.72,10.12,20.11,7.91,6.56-1.55,1.46-13.07-6.34-15.09S212.74,134.58,213.71,142.29Z" style="fill: rgb(38, 50, 56); transform-origin: 225.224px 142.502px;" id="el3nmxdbwgego" class="animable"></path><path d="M218.05,142.26l-19.82,2.47S203.82,131.36,218.05,142.26Z" style="fill: rgb(38, 50, 56); transform-origin: 208.14px 141.356px;" id="elyt0xf4vxzp" class="animable"></path><path d="M216.79,142,200.66,149S202.12,136.3,216.79,142Z" style="fill: rgb(38, 50, 56); transform-origin: 208.725px 144.764px;" id="elckivlxcemv" class="animable"></path><path d="M215.13,142l-4.5,6.38S208.23,143.26,215.13,142Z" style="fill: rgb(38, 50, 56); transform-origin: 212.678px 145.19px;" id="elqec6jx26r3k" class="animable"></path><path d="M217.59,142,201,138.14S209.45,129.11,217.59,142Z" style="fill: rgb(38, 50, 56); transform-origin: 209.295px 138.533px;" id="el312c7spji9d" class="animable"></path><path d="M215.89,142.38l-7.77-9.64S217,131.32,215.89,142.38Z" style="fill: rgb(38, 50, 56); transform-origin: 212.053px 137.53px;" id="elwdj8cmkdsj9" class="animable"></path><path d="M235.85,151.48a6.63,6.63,0,0,1-.65,5c-1.16,2-3.36,1.35-4.38-.59-.92-1.75-1.42-4.91.4-6.25A3,3,0,0,1,235.85,151.48Z" style="fill: rgb(255, 181, 115); transform-origin: 233.033px 153.406px;" id="elhm59globsjl" class="animable"></path><path d="M250.61,233.24s4,81.24,19.32,104.42c16,24.12,55.3,49.91,55.3,49.91l11-9.32s-37-35-45.18-55.35c-11.32-28.08-13.43-106.73-13.43-106.73Z" style="fill: rgb(38, 50, 56); transform-origin: 293.42px 301.87px;" id="elplg6qt270hh" class="animable"></path><polygon points="337.24 377.47 324.94 388.77 318.72 385.39 331.74 372.26 337.24 377.47" style="fill: rgb(22, 23, 24); transform-origin: 327.98px 380.515px;" id="elfpx1ch3g4dh" class="animable"></polygon><g id="elazn42a8ttg"><path d="M268.87,234.89c-.13,9.59,5.35,22.51,12.34,30.77-.76-7.62-1.38-15-1.88-21.63C275.82,240.13,272.19,236.72,268.87,234.89Z" style="opacity: 0.2; transform-origin: 275.039px 250.275px;" class="animable"></path></g><path d="M258.87,228s37.89,50.08,61.37,77c19,21.71,77.7,14.42,77.7,14.42l0-12.56s-42.14,1-55.16-13.64c-41.64-47-42-72.1-60.85-79.74Z" style="fill: rgb(38, 50, 56); transform-origin: 328.405px 267.038px;" id="elywe538027zm" class="animable"></path><polygon points="398.21 304.78 398.24 322.1 390.06 324.38 390.44 304.86 398.21 304.78" style="fill: rgb(22, 23, 24); transform-origin: 394.15px 314.58px;" id="eljcb99phnol" class="animable"></polygon><path d="M281.22,211.34l3.18,1.91c.25.14.13.53-.23.76l-32.83,20.73c-.28.18-.61.19-.74,0l-2-2.63c-.14-.18,0-.5.31-.69l31.7-20A.68.68,0,0,1,281.22,211.34Z" style="fill: rgb(22, 23, 24); transform-origin: 266.539px 223.09px;" id="el0zxl0lvuos1k" class="animable"></path><g id="elup2eknnueln"><path d="M281.22,211.34l3.18,1.91c.25.14.13.53-.23.76l-32.83,20.73c-.28.18-.61.19-.74,0l-2-2.63c-.14-.18,0-.5.31-.69l31.7-20A.68.68,0,0,1,281.22,211.34Z" style="opacity: 0.4; transform-origin: 266.539px 223.09px;" class="animable"></path></g><path d="M279.2,217.57l.85-.54c.17-.1.24-.27.16-.37l-2.69-3.39c-.08-.1-.29-.09-.45,0l-.85.54c-.17.11-.25.28-.17.37l2.7,3.39A.36.36,0,0,0,279.2,217.57Z" style="fill: rgb(38, 50, 56); transform-origin: 278.131px 215.424px;" id="el1txr58rdew2" class="animable"></path><path d="M253.92,233.54l.84-.54c.17-.1.25-.27.17-.37l-2.7-3.39c-.08-.1-.28-.09-.45,0l-.85.54c-.17.11-.24.28-.16.38l2.69,3.38A.37.37,0,0,0,253.92,233.54Z" style="fill: rgb(38, 50, 56); transform-origin: 252.849px 231.394px;" id="el3jmxxkc9b0w" class="animable"></path><path d="M266.56,225.56l.85-.54c.17-.11.24-.28.16-.38l-2.7-3.38c-.07-.1-.28-.1-.45,0l-.85.54c-.17.1-.24.27-.16.37l2.7,3.39C266.19,225.67,266.39,225.66,266.56,225.56Z" style="fill: rgb(38, 50, 56); transform-origin: 265.49px 223.412px;" id="elzcsmgu7jsp" class="animable"></path><path d="M219.73,151.74c.27.68.12,1.38-.32,1.56s-1-.24-1.3-.93-.12-1.38.33-1.55S219.46,151.06,219.73,151.74Z" style="fill: rgb(38, 50, 56); transform-origin: 218.914px 152.062px;" id="ela4kf8c0gow8" class="animable"></path><path d="M212,154.77c.27.68.12,1.38-.33,1.55s-1-.24-1.29-.92-.12-1.38.33-1.56S211.72,154.08,212,154.77Z" style="fill: rgb(38, 50, 56); transform-origin: 211.186px 155.078px;" id="el7p2tin367kn" class="animable"></path><path d="M210.91,153.8l-1.83.17S210.42,154.93,210.91,153.8Z" style="fill: rgb(38, 50, 56); transform-origin: 209.995px 154.075px;" id="elfjxbgz8k1mn" class="animable"></path><path d="M214.5,155.14a19.49,19.49,0,0,1-.74,5.33,3.15,3.15,0,0,0,2.62-.5Z" style="fill: rgb(237, 137, 62); transform-origin: 215.07px 157.853px;" id="elgf3d94aem3n" class="animable"></path><path d="M219.82,161.74a.22.22,0,0,1-.25-.13.21.21,0,0,1,.12-.28,5.88,5.88,0,0,0,3.6-3.86.21.21,0,0,1,.25-.16.21.21,0,0,1,.17.25,6.16,6.16,0,0,1-3.86,4.17Z" style="fill: rgb(38, 50, 56); transform-origin: 221.634px 159.525px;" id="el9zg7ahiyo8c" class="animable"></path><path d="M220.08,149a.45.45,0,0,1-.3,0,3.45,3.45,0,0,0-3.12-.05.43.43,0,0,1-.59-.16.44.44,0,0,1,.15-.59,4.3,4.3,0,0,1,3.94,0,.44.44,0,0,1,.2.58A.43.43,0,0,1,220.08,149Z" style="fill: rgb(38, 50, 56); transform-origin: 218.207px 148.374px;" id="elo9az24booio" class="animable"></path><path d="M207,152.59a.45.45,0,0,1-.2,0,.43.43,0,0,1-.33-.51A4.26,4.26,0,0,1,209,149a.42.42,0,0,1,.55.25.41.41,0,0,1-.25.55,3.43,3.43,0,0,0-1.9,2.47A.45.45,0,0,1,207,152.59Z" style="fill: rgb(38, 50, 56); transform-origin: 208.022px 150.786px;" id="elv0gp7k4m5cp" class="animable"></path><path d="M261.3,162.25l.66-.41.74-.47c.51-.32,1-.65,1.52-1,1-.68,2-1.42,3-2.15a66,66,0,0,0,5.7-4.74c1.82-1.67,3.57-3.42,5.23-5.26l1.93-2.21c.1-.12.22-.43.12-1.17a9.37,9.37,0,0,0-.94-2.59,25.62,25.62,0,0,0-1.79-2.9,57.35,57.35,0,0,0-4.73-5.7,144.16,144.16,0,0,0-11.2-10.59l2.64-3.79a94.4,94.4,0,0,1,13.23,9.51,54.14,54.14,0,0,1,6,5.95,29.16,29.16,0,0,1,2.66,3.64,17.06,17.06,0,0,1,2.06,4.7,10.61,10.61,0,0,1,.33,3.11,9.42,9.42,0,0,1-.83,3.46,9.59,9.59,0,0,1-.92,1.55l-.64.87-1.25,1.7a74,74,0,0,1-5.56,6.31,77.86,77.86,0,0,1-6.3,5.59c-1.11.86-2.25,1.69-3.43,2.48-.59.4-1.19.79-1.8,1.18l-.94.56c-.33.19-.61.35-1.05.58Z" style="fill: rgb(255, 181, 115); transform-origin: 274.885px 144.865px;" id="ele5wwdds507" class="animable"></path><path d="M248.36,167.34c4.4-4.83,18.57-9.37,18.57-9.37l4.55,23.16s-4.91,4.89-10.86,3.21C255.56,182.91,242.09,174.22,248.36,167.34Z" style="fill: rgb(22, 23, 24); transform-origin: 259.104px 171.331px;" id="ell2lvwxegd49" class="animable"></path><path d="M411,321.27a1.36,1.36,0,0,1-.81.33.74.74,0,0,1-.69-.27c-.72-.91.35-4,.47-4.38a.21.21,0,0,1,.19-.15.24.24,0,0,1,.21.12c.55,1.08,1.4,3,.85,4.06A1.23,1.23,0,0,1,411,321.27Zm-.79-3.68c-.39,1.26-.75,3-.37,3.47a.31.31,0,0,0,.31.11.78.78,0,0,0,.69-.4C411.11,320.22,410.87,319.05,410.18,317.59Z" style="fill: rgb(22, 23, 24); transform-origin: 410.325px 319.204px;" id="elpf9uc2vsham" class="animable"></path><path d="M408.74,319.49a2.15,2.15,0,0,1-1.21.68.75.75,0,0,1-.76-.56,1.09,1.09,0,0,1,.06-1c.61-1.17,3.15-1.81,3.26-1.84a.21.21,0,0,1,.21.06.22.22,0,0,1,.05.21A6.49,6.49,0,0,1,408.74,319.49Zm-1.24-1a1.31,1.31,0,0,0-.29.36.69.69,0,0,0,0,.61c.1.26.23.28.34.28.63,0,1.82-1.39,2.28-2.4A6.42,6.42,0,0,0,407.5,318.49Z" style="fill: rgb(22, 23, 24); transform-origin: 408.517px 318.467px;" id="elyy9672z4zi" class="animable"></path><path d="M335.78,398.09a3.54,3.54,0,0,1-1.33,1.72,1.34,1.34,0,0,1-1.17.08.65.65,0,0,1-.43-.49c-.2-1.17,2.84-3.84,3.45-4.36a.23.23,0,0,1,.25,0,.21.21,0,0,1,.1.23A14,14,0,0,1,335.78,398.09Zm-2.41.81a.72.72,0,0,0-.09.42c0,.06,0,.12.15.16a.89.89,0,0,0,.81-.05c.7-.38,1.37-1.71,1.84-3.63A13.71,13.71,0,0,0,333.37,398.9Z" style="fill: rgb(22, 23, 24); transform-origin: 334.748px 397.495px;" id="el3ih4jf063y7" class="animable"></path><path d="M336.64,395.29l-.05.07c-1,.9-3.77,2.34-4.64,1.79-.19-.12-.38-.37-.22-.91.65-2.05,4.59-1.29,4.76-1.25a.2.2,0,0,1,.16.15A.26.26,0,0,1,336.64,395.29Zm-4.44.95a.5.5,0,0,0-.05.13q-.11.33,0,.42c.5.31,2.63-.6,3.76-1.45C335,395.21,332.73,395.06,332.2,396.24Z" style="fill: rgb(22, 23, 24); transform-origin: 334.163px 396.046px;" id="el3mprv6n6x14" class="animable"></path><path d="M218.65,150.78l-1.83.17S218.17,151.9,218.65,150.78Z" style="fill: rgb(38, 50, 56); transform-origin: 217.735px 151.053px;" id="el5hv9nrbmcjm" class="animable"></path></g><rect x="171" y="292.1" width="87.68" height="8.65" style="fill: rgb(22, 23, 24); transform-origin: 214.84px 296.425px;" id="ellt6b1j0qzme" class="animable"></rect><rect x="171" y="308.61" width="58.13" height="8.65" style="fill: rgb(22, 23, 24); transform-origin: 200.065px 312.935px;" id="el9ty1yunrt2" class="animable"></rect><rect x="173.6" y="377.82" width="32.15" height="3.75" style="fill: rgb(224, 224, 224); transform-origin: 189.675px 379.695px;" id="el9rripef91ue" class="animable"></rect><rect x="179.01" y="384.96" width="21.32" height="3.75" style="fill: rgb(224, 224, 224); transform-origin: 189.67px 386.835px;" id="el6p19yqtswg3" class="animable"></rect><rect x="221.17" y="377.82" width="32.15" height="3.75" style="fill: rgb(224, 224, 224); transform-origin: 237.245px 379.695px;" id="elv9mew8v9yx" class="animable"></rect><rect x="226.59" y="384.96" width="21.32" height="3.75" style="fill: rgb(224, 224, 224); transform-origin: 237.25px 386.835px;" id="elhl1v9cuxc2t" class="animable"></rect><rect x="270.22" y="377.82" width="32.15" height="3.75" style="fill: rgb(224, 224, 224); transform-origin: 286.295px 379.695px;" id="eliqsbl1r2h3j" class="animable"></rect><rect x="275.64" y="384.96" width="21.32" height="3.75" style="fill: rgb(224, 224, 224); transform-origin: 286.3px 386.835px;" id="elvff0gdpyz8e" class="animable"></rect><path d="M205.47,93.16a7.89,7.89,0,0,0,7.86,7.86h49.31a7.89,7.89,0,0,0,7.86-7.86Z" style="fill: rgb(22, 23, 24); transform-origin: 237.985px 97.09px;" id="elfnau8gjabi9" class="animable"></path><g id="elqlbbxzzucbs"><circle cx="189.67" cy="351.29" r="18.67" style="fill: rgb(22, 23, 24); transform-origin: 189.67px 351.29px; transform: rotate(-76.72deg);" class="animable"></circle></g><path d="M192.28,348.57c-4.53-1.38-7.35-6.32-7.35-6.32s-1.43-.08-1.5,1.22a6.39,6.39,0,0,0,1.88,4.71l-2.18-.13a7.22,7.22,0,0,0-2.31.25l-.72.2a2.38,2.38,0,0,0-1.69,2.87l1,4.24a5.29,5.29,0,0,0,5.89,4c2.22-.33,5.67-.83,6.27-.94h0l1.58-.13.54-9.51Z" style="fill: rgb(255, 255, 255); transform-origin: 186.015px 350.956px;" id="ell52s539yotd" class="animable"></path><rect x="192.41" y="347.26" width="7.83" height="12.53" rx="0.86" style="fill: rgb(38, 50, 56); transform-origin: 196.325px 353.525px;" id="el0s687uelpwk" class="animable"></rect><g id="elr83x482g0dp"><circle cx="286.3" cy="351.29" r="18.67" style="fill: rgb(22, 23, 24); transform-origin: 286.3px 351.29px; transform: rotate(-76.72deg);" class="animable"></circle></g><path d="M286.3,341.55a9.2,9.2,0,0,0-2.1,18.15l2.1,2.67,2.1-2.67h0a9.2,9.2,0,0,0-2.1-18.15Zm0,13a3.83,3.83,0,1,1,3.83-3.83A3.83,3.83,0,0,1,286.3,354.58Z" style="fill: rgb(255, 255, 255); transform-origin: 286.3px 351.96px;" id="elj2y5dv7e6ve" class="animable"></path><g id="el3cf4hh76cd"><circle cx="237.98" cy="351.29" r="18.67" style="fill: rgb(22, 23, 24); transform-origin: 237.98px 351.29px; transform: rotate(-45deg);" class="animable"></circle></g><path d="M242.31,347a.44.44,0,0,0-.25-.47,7.46,7.46,0,0,0-3-.6,6.73,6.73,0,0,0-6.72,6.72c0,2.48,1.66,3.78,3.3,3.78a4.35,4.35,0,0,0,3.53-1.7,2.45,2.45,0,0,0,.55,1,2.37,2.37,0,0,0,1.73.7c2.56,0,5.16-2.32,5.16-6.75a7.78,7.78,0,0,0-8.16-8.1c-5.76,0-10.11,4.57-10.11,10.62,0,5.05,3.56,8.71,8.47,8.71a10,10,0,0,0,4.92-1.11.43.43,0,0,0,.2-.53l-.42-1.14a.4.4,0,0,0-.26-.25.39.39,0,0,0-.35,0,7.87,7.87,0,0,1-3.8.88c-3.82,0-6.39-2.71-6.39-6.74,0-4.85,3.17-8.38,7.53-8.38,3.7,0,6,2.37,6,6.18a5.51,5.51,0,0,1-1.28,3.89,1.72,1.72,0,0,1-1.14.54.43.43,0,0,1-.34-.15c-.15-.19-.36-.74,0-2.32Zm-3.59,1.2a4.41,4.41,0,0,1,.83.08l-.48,2.6c-.27,1.51-1.55,3.25-2.81,3.25s-1.32-1-1.32-1.58C234.94,350.16,236.67,348.17,238.72,348.17Z" style="fill: rgb(255, 255, 255); transform-origin: 237.478px 351.243px;" id="eljax7t33isz" class="animable"></path></g><defs>     <filter id="active" height="200%">         <feMorphology in="SourceAlpha" result="DILATED" operator="dilate" radius="2"></feMorphology>                <feFlood flood-color="#32DFEC" flood-opacity="1" result="PINK"></feFlood>        <feComposite in="PINK" in2="DILATED" operator="in" result="OUTLINE"></feComposite>        <feMerge>            <feMergeNode in="OUTLINE"></feMergeNode>            <feMergeNode in="SourceGraphic"></feMergeNode>        </feMerge>    </filter>    <filter id="hover" height="200%">        <feMorphology in="SourceAlpha" result="DILATED" operator="dilate" radius="2"></feMorphology>                <feFlood flood-color="#ff0000" flood-opacity="0.5" result="PINK"></feFlood>        <feComposite in="PINK" in2="DILATED" operator="in" result="OUTLINE"></feComposite>        <feMerge>            <feMergeNode in="OUTLINE"></feMergeNode>            <feMergeNode in="SourceGraphic"></feMergeNode>        </feMerge>            <feColorMatrix type="matrix" values="0   0   0   0   0                0   1   0   0   0                0   0   0   0   0                0   0   0   1   0 "></feColorMatrix>    </filter></defs><defs><clipPath id="freepik--clip-path--inject-6"><path d="M175.37,119.69H300.6a4.36,4.36,0,0,1,4.36,4.36V276.81a4.36,4.36,0,0,1-4.36,4.36H175.37a4.37,4.37,0,0,1-4.37-4.37V124.06a4.36,4.36,0,0,1,4.36-4.36Z" style="fill:none"></path></clipPath></defs></svg>